<svg xmlns="http://www.w3.org/2000/svg" width="32" height="32" viewBox="0 0 32 32" fill="none">
  <path d="M0 4C0 1.79086 1.79086 0 4 0H28C30.2091 0 32 1.79086 32 4V28C32 30.2091 30.2091 32 28 32H4C1.79086 32 0 30.2091 0 28V4Z" fill="#2A2AEA"/>
  <path d="M17.7123 25.6004L12.6661 12.8878C12.6581 12.8677 12.6394 12.8546 12.6186 12.8546C12.5935 12.8546 12.572 12.8735 12.5678 12.8994L10.6143 24.8951C10.548 25.3024 10.2103 25.6004 9.81503 25.6004H7.21092C6.70674 25.6004 6.32481 25.1245 6.41247 24.6056L9.36935 7.10051C9.43775 6.69557 9.77439 6.40039 10.1678 6.40039H13.7982C14.1259 6.40039 14.4213 6.60649 14.547 6.92274L18.9074 17.8937L17.713 25.5996L18.5239 25.5995L20.6786 11.697H24.8607L22.6305 24.9003C22.5621 25.3052 22.2254 25.6004 21.832 25.6004H17.7123Z" fill="#F7F7F8"/>
  <path d="M20.8099 10.8495H25.0038L25.5873 7.39519C25.675 6.87624 25.2931 6.40039 24.7889 6.40039H22.184C21.8182 6.40039 21.5017 6.65555 21.404 7.01649L20.8099 10.8495Z" fill="#F7F7F8"/>
</svg>
